<?xml version="1.0" encoding="utf-8"?>
<!-- Generator: Adobe Illustrator 27.4.1, SVG Export Plug-In . SVG Version: 6.00 Build 0)  -->
<svg width="200" height="250" version="1.1" id="Layer_1" xmlns="http://www.w3.org/2000/svg" xmlns:xlink="http://www.w3.org/1999/xlink" x="0px" y="0px"
	 viewBox="300 110 600 200" style="enable-background:new 0 0 1280 426;" xml:space="preserve">
<style type="text/css">
	.st0{fill:#7C3FE3;}
	.st1{fill:#0C0C0D;}
</style>
<path class="st0" d="M56.9,184c0-8.5,0-17,0-25.5c0-6,3.2-10.6,7.8-13c8.3-4.4,16.2-9.2,24.5-13.6c6.3-3.4,12.3-7.5,18.7-10.7
	c5-2.5,10.9-2.8,15.8-0.2c13,7,25.4,15,38.4,22c5.7,3.1,10.4,6.2,12.7,12.7c2.1,5.8,0.8,11.5,1,17.2c0,0.9-1.1,2.1-2,2.7
	c-5.6,3.2-11.3,6.1-16.8,9.4c-3,1.8-2.9,0-2.9-2.1c0-4.7-0.4-9.4,0.1-14c0.4-4-0.9-6.4-4.4-8.2c-9.2-4.9-18.5-9.7-27.2-15.3
	c-5.9-3.8-10.9-2.5-15.9,0.8c-7.2,4.7-14.1,10.2-22.1,13c-6.6,2.3-6.6,5.7-6.4,11.2c0.5,11,0.3,22,0.1,33c-0.1,3.1,1.1,5.2,3.6,6.3
	c10.8,4.9,20.7,11.6,31.1,17.2c2.2,1.2,4,0.8,6.1-0.3c15.1-7.9,29.4-17,44.1-25.4c14-8,27.8-16.3,41.8-24.2c5.6-3.2,11.7-3,17.4,0.3
	c13.5,7.9,26.9,16.1,40.7,23.7c7,3.8,9.9,9.4,10,16.9c0.1,15.1,0.2,30.3-0.1,45.5c-0.2,8-3.4,14.4-11,18.5
	c-13,7-25.6,14.7-38.6,21.8c-5.1,2.8-11,4.5-16.6,2.8c-4.1-1.3-7.6-4.5-11.6-6.7c-3.6-2-7-4.2-10-6.9c-4.3-3.8-10.4-3.7-14.8-7.3
	c-3.7-3-7.9-5.3-11.7-8.2c-2.9-2.2-4.3-5.2-4.5-8.9c-0.5-11.1,4-19.3,13.5-24.8c5.2-3,7.8-1.4,7.8,4.7c0,1.7,0.3,3.4-0.1,5
	c-1.7,7.4,2.1,12.1,8,14.9c8.5,3.9,16.3,9.1,24.2,14c5.4,3.3,10,1.2,13.4-1.3c8.4-6.2,18-10.3,26.7-15.9c2.4-1.6,3.5-2.9,3.5-5.8
	c-0.1-12-0.1-24,0-36c0-2.9-0.9-4.3-3.5-5.7c-10.5-5.7-20.8-11.8-31.2-17.7c-2.4-1.4-4.4-1.7-7.2-0.3c-8.8,4.4-16.8,10.2-25.6,14.7
	c-10.7,5.5-20.6,12.5-31,18.5c-10.2,5.9-20.6,11.8-31.2,17.1c-4.6,2.3-9.5,1.4-14.5-1.3c-4.8-2.6-9.8-5.2-14.3-8.1
	c-6.1-3.9-13.8-5.4-18.3-11.8c-0.8-1.1-2.1-1.4-3.3-1.9c-10.5-3.9-14.1-9.2-14.1-20.4c0-7.5,0-15,0-22.5C56.8,184,56.8,184,56.9,184
	L56.9,184z"/>
<path class="st1" d="M657.6,268.4c0.7-0.9,1.8-0.7,2.8-0.8c7.6-0.3,11.6-4.4,11.7-12c0-2.5,0-4.9,0-7.8c-4.6,1.1-7.3,5.2-11.9,5.6
	c-9,0.8-18,2.2-26.4-2.3c-9.6-5.2-15.2-13.8-17.6-24.2c-2.6-11.4-1.1-22.6,3.7-33.3c6.3-14.1,21.8-19.9,36.2-17.3
	c4.7,0.8,9.1,2.1,13,5.1c1.8,1.3,3.2,0.8,2.9-1.8c-0.3-2.6,0.9-3.2,3.2-2.9c0.3,0.1,0.7,0,1,0c5.7,0.1,13.2-2.1,16.7,1.1
	c3.3,3.1,1,10.6,1,16.2c0.1,17.5,0.1,35,0,52.4c0,5.8-0.2,11.6-0.9,17.3c-1,7.7-6,12.6-12.5,16.6c-5.4,3.3-11.1,3.7-17,3.8
	c-11.1,0.2-22.3-0.4-33.4,0.7c-3.2,0.3-4.2-1-3.9-4c0.2-1.5,0-3,0-4.5c0-8.8,0-9,9.1-8.8c6.7,0.2,13.5-1.2,20.2,0.8
	C656.3,269,657,269.3,657.6,268.4L657.6,268.4z M673,216.2c0-2.6,0.1-4.1,0-5.6c-0.5-8.3-7-15.9-15.3-16.4
	c-9.8-0.6-15.4,0.6-19.2,9.8c-1.8,4.5-3.1,9.3-2.5,14.2c2.1,17.1,16,21.6,28.2,15.4C671.6,230,673.8,223.1,673,216.2L673,216.2z"/>
<path class="st1" d="M348,247.1c0,11.9-0.1,22.5,0.1,33.1c0.1,3.3-0.9,4.4-4.2,4.2c-4.1-0.2-8.3-0.3-12.5,0
	c-3.8,0.3-4.7-1.1-4.7-4.7c0.1-29.6,0.1-59.3,0-88.9c0-3.6-0.4-7.2-0.8-10.8c-0.2-2.5,0.8-3.2,3.1-3.2c4,0.1,8,0.2,12,0
	c4.5-0.2,8.2,0,6.6,7.6c7.1-7.2,14.8-8.7,23.2-8.4c16,0.5,27.6,9.2,32.1,25c4.1,14.2,2.4,27.7-6.1,39.9c-5,7.3-12.2,11.9-21.2,13.2
	c-4,0.6-7.9,0.7-12,0.4C357.8,253.9,353.2,251.7,348,247.1L348,247.1z M347,214.8c0,1.6,0,2.8,0,3.9c-0.4,8.1,4.6,13.1,10.8,16.2
	c4.8,2.4,10.6,2.2,16-0.7c8.8-4.7,11-12.5,10.2-21.5c-1.3-14.6-12.1-21.2-25.5-17.6C351.8,196.9,346.2,203,347,214.8L347,214.8z"/>
<path class="st1" d="M1221,202.1c0.3,12.8-4.5,26.2-14.8,36.8c-8.9,9.2-19.9,15.3-33.4,15.1c-3.4-0.1-6.8-0.4-10.3,0.8
	c-2.3,0.8-4.7-0.8-7-1.4c-21.2-5.6-33-20.1-38-40.6c-5.3-21.7,3.7-49.8,26.1-61c22.9-11.5,50.3-6.3,66.2,13.9
	C1217.5,175.4,1221.2,187.2,1221,202.1L1221,202.1z M1130.1,190.5c0.3,9.4-0.4,18.7,2.9,27.9c4.9,13.5,20.7,26.8,37.1,24.7
	c1.6-0.2,3-1,4.7-1.1c9.1-0.6,16.1-5.5,22-12c4.3-4.7,6.7-10.5,8.7-16.6c4.6-14,2-26.7-5.6-38.7c-6.5-10.2-16.4-15.3-28.1-16.4
	c-8.4-0.8-16.7,0.4-23.9,5.3c-9.7,6.5-14.5,16.2-17.8,26.9L1130.1,190.5L1130.1,190.5z"/>
<path class="st1" d="M745.7,254c-23.3,2.7-40-19.6-39.6-39c0.5-23.4,16.3-37.4,35.7-38.8c30.3-2.2,45.1,17.4,45.5,38.6
	C787.6,234.4,771.4,256.6,745.7,254L745.7,254z M745.5,236c11,1.2,20.9-7.7,20.5-20.4c-0.4-13.1-7.4-20.9-18.9-21.7
	c-11.5-0.8-20.1,9.9-19.3,22.3C728.6,227.8,735.1,235.9,745.5,236L745.5,236z"/>
<path class="st1" d="M452.8,254c-22.7,3.1-38.8-19-40-33.8c-2.3-28.6,19.7-45.6,41.2-44.3c21.8,1.4,39.3,15.2,39.4,39.6
	C493.5,235.9,475.6,256.6,452.8,254z M434,214.8c0,1.2-0.1,2.3,0,3.5c0.6,7.5,4.1,13.6,10.9,16.4c6.2,2.6,13,2.8,19-1.9
	c6.9-5.3,8.8-12.5,8-20.4c-1.5-14.9-11.8-20.6-25-17.5C438.2,196.9,433.9,204.4,434,214.8L434,214.8z"/>
<path class="st1" d="M821.2,185.6c6.3-8.6,15.1-10.3,24.5-9.5c10.4,0.9,19.3,4.8,23.4,15.6c1.9,5,3.3,10.2,3.3,15.6
	c0,13.8-0.1,27.6,0.1,41.4c0,3.3-0.7,4.8-4.3,4.6c-4.3-0.3-8.7-0.3-13,0c-3.4,0.2-4.2-1.1-4.2-4.3c0.1-13.1,0-26.3-0.1-39.4
	c0-5.3-3.8-12.6-7.5-13.5c-6.7-1.5-13.8-3.1-19,3.1c-2.7,3.2-4,7-3.8,11.8c0.5,13.1,0,26.3,0,39.4c0,2.7-1.5,2.9-3.5,2.8
	c-4.7-0.1-9.3-0.3-14,0c-3.6,0.2-4-1.3-4-4.4c0.1-20,0-39.9,0.1-59.9c0-3.9-2-9.2,0.5-11.5c2.6-2.5,7.9-0.5,12-0.7
	c0.7,0,1.3,0.1,2,0c5.1-1,7.4,0.8,6.4,6.1C819.8,184,820.2,184.8,821.2,185.6L821.2,185.6z"/>
<path class="st1" d="M948.2,253.2c-6,0-12-0.1-18,0.1c-2.7,0.1-3.4-0.8-3.3-3.4c1.9-33.2,0.4-66.5,0.8-99.8c0-2.8,1.1-3.2,3.5-3.2
	c12.9,0.1,26-1,38.7,1.3c17.3,3.1,33.3,13.9,39.1,33.2c4.2,13.9,3.9,27.7-1.3,41.1c-5,12.8-14.1,21.5-27.2,26.7
	C969.9,253.4,959.1,253.3,948.2,253.2L948.2,253.2z M997.3,192.6c-1.1-15-8.8-25.1-22.8-30.7c-10.3-4.1-21-3-31.7-3.1
	c-2,0-2,1.2-2,2.6c0,25.8,0,51.6,0,77.4c0,1.7,0.2,2.9,2.4,2.8c9.3-0.4,18.7,1.4,27.8-1.6c6.4-2.1,12.7-4.8,17-9.8
	c8.9-10.4,12.2-22.7,10.2-36.4c0.1-0.4,0.3-0.8,0.4-1.2C998.1,192.6,997.7,192.6,997.3,192.6z"/>
<path class="st1" d="M574.2,282.3c0.1,2-1.2,2-2.7,2c-4.7,0-9.3-0.1-14,0c-2.7,0.1-3-0.9-2.3-3.3c2.7-8.8,5.5-17.5,9.2-25.9
	c0.7-1.5,0.6-2.8,0-4.2c-4.2-11.4-8.3-22.9-12.5-34.2c-4.5-12.1-9.4-24.1-13.4-36.3c-1.1-3.3-0.2-3.7,2.7-3.6
	c4.7,0.2,9.3,0.2,14-0.1c2.9-0.2,4.1,1.1,4.8,3.5c2.9,9.2,6.2,18.2,8.8,27.5c1.1,3.9,3.8,7.1,4.2,11.3c0,0.6,1.3,1.8,1.5,1.7
	c1-0.6,2.1-0.9,2.8-2.3c2.8-5,3.8-10.5,5.5-15.8c2.5-7.6,4.9-15.3,7-23.1c0.6-2,1.7-2.8,3.5-2.8c5.5-0.1,11,0,16.5,0
	c1.8,0,2.6,0.1,1.7,2.5c-5.7,15.7-10.8,31.6-16.8,47.2c-6.6,17.1-12.4,34.5-18.7,51.7C575.6,279.6,574.9,280.9,574.2,282.3
	L574.2,282.3L574.2,282.3z"/>
<path class="st1" d="M1015.7,253c6.2-13,9.4-26.8,16.6-39c2.2-3.7,2.4-8,4-12c6.7-17.1,13.7-34.1,20.3-51.1c2.2-5.6,5.8-3.3,9-4
	c3.5-0.8,5.2,1.5,6.2,4.1c6.1,16.4,12.5,32.6,19.3,48.6c3.7,8.8,7,17.7,10.5,26.6c3.5,8.8,7,17.7,10.5,26.5
	c-0.6,0.2-0.8,0.3-0.9,0.3c-13.1,0.8-13.8,0.4-18-14.1c-1.2-4.2-3.8-7.9-4.4-12.4c-0.2-2-1.8-2-3.4-2c-14,0-28,0.1-41.9,0
	c-2.7,0-3.7,1.3-4.5,3.5c-2.9,7.6-6.1,15-8.7,22.6c-0.7,2.1-1.6,2.4-3.4,2.3C1023.4,252.9,1019.9,253,1015.7,253L1015.7,253z
	 M1044.9,213c12,0,23.5-0.1,34.9,0c3.1,0,3.5-0.4,2.2-3.6c-4.7-11.5-8.7-23.3-13.5-34.7c-1.5-3.5-2.1-7.6-4.7-10.8
	C1057.5,180.4,1051.3,196.4,1044.9,213z"/>
<path class="st1" d="M506.6,198.1c0-16.2,0.2-32.3-0.1-48.5c-0.1-4.8,0.7-7.1,6.1-6.3c4.9,0.7,11.7-2.1,14.3,1.1
	c2.5,3,0.8,9.5,0.8,14.5c0,28.6,0,57.3,0,85.9c0,0.7,0,1.3,0,2c-0.1,4.3-1,7.5-6.6,6.5c-4.7-0.8-11,2.1-13.8-1.2
	c-2.3-2.8-0.8-8.9-0.8-13.5C506.5,225.1,506.6,211.6,506.6,198.1L506.6,198.1z"/>
<path class="st0" d="M657.6,268.4c-0.6,0.9-1.3,0.6-2.1,0.2c-0.4-0.7-0.2-1.2,0.6-1.3C656.9,267.3,657.8,267.1,657.6,268.4z"/>
<path class="st0" d="M574.2,282.3L574.2,282.3L574.2,282.3z"/>
<polygon class="st0" points="1130.2,190.3 1130.3,190.5 1130.1,190.5 "/>
<path class="st0" d="M998.1,193.8c-1.3,0.2-1.2-0.4-0.8-1.2c0.4,0,0.8,0.1,1.2,0.1C998.4,193,998.2,193.4,998.1,193.8L998.1,193.8z"
	/>
</svg>
