<?xml version="1.0" encoding="UTF-8"?>
<svg id="Layer_1" data-name="Layer 1" xmlns="http://www.w3.org/2000/svg" viewBox="0 0 1280 426">
  <defs>
    <style>
      .cls-1 {
        fill: #fff;
      }

      .cls-2 {
        fill: #0c0c0d;
      }

      .cls-3 {
        fill: #7c3fe3;
      }
    </style>
  </defs>
  <path class="cls-1" d="m639.5,425.91c-211.64,0-423.27-.01-634.91.09-3.75,0-4.6-.84-4.59-4.59C.11,282.47.11,143.53,0,4.59,0,.84.84,0,4.59,0c423.6.1,847.21.1,1270.81,0,3.75,0,4.6.84,4.59,4.59-.11,138.94-.11,277.88,0,416.82,0,3.75-.84,4.59-4.59,4.59-211.97-.11-423.94-.09-635.91-.09Zm-65.3-143.58l.06-.08c.6-1.31,1.29-2.59,1.78-3.94,6.27-17.23,12.09-34.61,18.67-51.74,5.99-15.59,11.1-31.52,16.83-47.22.89-2.43.09-2.54-1.72-2.54-5.5,0-10.99-.04-16.49,0-1.8.02-2.87.75-3.45,2.79-2.18,7.73-4.56,15.41-7.05,23.05-1.72,5.29-2.68,10.82-5.48,15.79-.75,1.33-1.78,1.72-2.82,2.27-.16.09-1.41-1.05-1.46-1.68-.34-4.15-3.11-7.34-4.2-11.26-2.57-9.27-5.88-18.34-8.79-27.52-.79-2.49-1.99-3.71-4.85-3.54-4.65.28-9.33.23-13.99.07-2.9-.1-3.8.24-2.71,3.56,4.03,12.28,8.89,24.24,13.41,36.33,4.25,11.38,8.33,22.84,12.55,34.24.55,1.48.63,2.75-.02,4.24-3.68,8.42-6.5,17.15-9.22,25.92-.73,2.36-.42,3.38,2.29,3.3,4.66-.13,9.33-.06,13.99-.04,1.43,0,2.74-.03,2.66-1.99Zm81.32-13.71c-6.65-2.08-13.47-.64-20.2-.84-9.12-.27-9.13-.05-9.13,8.77,0,1.5.11,3.01-.04,4.49-.3,2.95.68,4.26,3.87,3.95,11.1-1.07,22.25-.52,33.37-.71,5.91-.1,11.61-.57,16.97-3.84,6.48-3.96,11.43-8.9,12.48-16.58.78-5.71.9-11.55.94-17.33.11-17.48.1-34.96,0-52.44-.03-5.58,2.36-13.12-.99-16.21-3.5-3.23-10.94-1.02-16.66-1.08-.33,0-.67.05-1,0-2.25-.32-3.49.37-3.19,2.92.31,2.55-1.12,3.08-2.88,1.75-3.9-2.96-8.31-4.25-13.03-5.08-14.39-2.51-29.94,3.21-36.23,17.34-4.76,10.7-6.3,21.9-3.7,33.31,2.37,10.4,7.94,18.97,17.58,24.18,8.4,4.54,17.42,3.13,26.41,2.29,4.62-.43,7.28-4.54,11.89-5.65,0,2.84.01,5.3,0,7.77-.05,7.66-4.05,11.78-11.65,12.04-.98.03-2.03-.16-2.77.75.2-1.29-.69-1.14-1.45-1.06-.82.09-1,.57-.6,1.28ZM56.91,184.01c-.05,0-.1,0-.16,0,0,7.49-.03,14.99,0,22.48.05,11.24,3.66,16.55,14.12,20.44,1.28.48,2.54.76,3.34,1.88,4.52,6.3,12.22,7.88,18.31,11.76,4.49,2.87,9.53,5.48,14.34,8.09,5.03,2.73,9.93,3.56,14.53,1.28,10.61-5.26,20.93-11.15,31.18-17.1,10.41-6.04,20.3-13.05,30.99-18.52,8.79-4.5,16.76-10.29,25.6-14.66,2.85-1.41,4.85-1.08,7.24.29,10.38,5.95,20.7,12,31.2,17.72,2.57,1.4,3.56,2.83,3.53,5.71-.15,11.99-.15,23.98-.02,35.97.03,2.88-1.09,4.2-3.5,5.76-8.7,5.63-18.3,9.7-26.7,15.94-3.41,2.53-7.99,4.65-13.42,1.31-7.9-4.86-15.65-10.04-24.17-13.96-5.96-2.74-9.69-7.51-8.01-14.87.36-1.58.05-3.32.05-4.98q.05-9.22-7.81-4.74-14.36,8.18-13.54,24.76c.18,3.7,1.57,6.77,4.5,8.93,3.83,2.83,8.05,5.16,11.73,8.17,4.42,3.62,10.52,3.51,14.8,7.34,3.03,2.71,6.43,4.97,10.04,6.92,3.93,2.13,7.43,5.43,11.59,6.68,5.66,1.71,11.53-.01,16.64-2.82,12.94-7.11,25.58-14.75,38.57-21.77,7.57-4.09,10.82-10.51,10.98-18.49.31-15.15.2-30.31.06-45.47-.07-7.42-2.99-13.02-10-16.85-13.77-7.52-27.16-15.73-40.7-23.66-5.74-3.36-11.76-3.51-17.4-.34-14.03,7.87-27.83,16.18-41.79,24.18-14.73,8.44-29.07,17.54-44.13,25.41-2.09,1.09-3.9,1.43-6.06.26-10.43-5.62-20.26-12.31-31.07-17.24-2.49-1.14-3.68-3.21-3.62-6.34.23-10.99.43-22-.06-32.97-.24-5.52-.23-8.99,6.37-11.25,8-2.75,14.89-8.33,22.08-12.99,5.06-3.28,9.98-4.61,15.92-.8,8.74,5.62,18.05,10.38,27.21,15.33,3.45,1.86,4.8,4.2,4.4,8.22-.46,4.62-.1,9.32-.1,13.98,0,2.06-.12,3.86,2.9,2.07,5.52-3.27,11.23-6.21,16.78-9.42.91-.53,2.04-1.77,2.02-2.66-.14-5.73,1.07-11.46-.98-17.22-2.29-6.41-6.98-9.58-12.68-12.66-12.97-6.99-25.39-15-38.35-22.03-4.86-2.63-10.75-2.29-15.77.21-6.42,3.19-12.37,7.3-18.71,10.65-8.25,4.37-16.21,9.26-24.49,13.61-4.56,2.39-7.84,7.03-7.79,12.99.06,8.49.02,16.98.02,25.48Zm291.11,63.04c5.16,4.6,9.78,6.79,15.74,7.28,4.13.34,7.98.23,11.99-.35,9.03-1.31,16.19-5.89,21.23-13.16,8.44-12.17,10.16-25.66,6.08-39.88-4.51-15.74-16.07-24.49-32.09-24.98-8.36-.26-16.04,1.21-23.16,8.4,1.6-7.66-2.17-7.87-6.65-7.62-3.98.23-7.99.12-11.99.02-2.31-.06-3.38.69-3.13,3.16.37,3.6.77,7.22.78,10.83.06,29.63.1,59.26-.05,88.89-.02,3.68.84,5.06,4.67,4.74,4.13-.34,8.33-.29,12.48-.04,3.29.2,4.23-.93,4.16-4.21-.2-10.61-.08-21.22-.08-33.09Zm872.99-44.97c.22-14.93-3.54-26.66-11.19-36.33-15.96-20.18-43.38-25.38-66.24-13.91-22.44,11.26-31.4,39.34-26.09,61.04,4.99,20.41,16.81,34.93,37.97,40.56,2.34.62,4.66,2.21,7,1.39,3.43-1.2,6.85-.86,10.27-.81,13.54.21,24.55-5.95,33.42-15.11,10.31-10.64,15.18-24.05,14.84-36.84Zm-475.34,51.9c25.72,2.63,41.97-19.56,41.58-39.24-.42-21.17-15.15-40.74-45.47-38.55-19.42,1.4-35.17,15.44-35.71,38.82-.45,19.39,16.33,41.62,39.6,38.96Zm-292.91,0c22.82,2.65,40.7-18.08,40.61-38.46-.11-24.4-17.57-38.26-39.41-39.64-21.53-1.35-43.58,15.7-41.25,44.27,1.2,14.79,17.34,36.89,40.05,33.83Zm368.48-68.35c-1.07-.76-1.43-1.66-1.24-2.71,1-5.3-1.26-7.15-6.36-6.14-.64.13-1.33-.02-1.99.02-4.1.24-9.36-1.72-11.99.74-2.47,2.31-.45,7.56-.47,11.51-.09,19.97,0,39.94-.11,59.91-.02,3.05.47,4.59,4.03,4.36,4.64-.3,9.32-.08,13.98-.01,2.03.03,3.49-.11,3.48-2.84-.02-13.14.5-26.29,0-39.41-.18-4.78,1.11-8.55,3.85-11.77,5.3-6.2,12.36-4.64,19.05-3.1,3.62.83,7.43,8.19,7.46,13.46.08,13.14.22,26.29.11,39.43-.03,3.19.73,4.51,4.15,4.27,4.31-.3,8.67-.35,12.97-.04,3.68.27,4.38-1.22,4.34-4.55-.16-13.81-.05-27.62-.08-41.43-.01-5.42-1.34-10.59-3.27-15.62-4.12-10.73-12.98-14.65-23.41-15.57-9.42-.83-18.26.89-24.51,9.5Zm126.95,67.56c10.95.09,21.73.25,32.36-3.96,13.1-5.19,22.29-13.93,27.24-26.73,5.18-13.39,5.43-27.17,1.27-41.12-5.77-19.35-21.75-30.09-39.1-33.2-12.74-2.28-25.79-1.17-38.71-1.29-2.4-.02-3.5.35-3.53,3.18-.36,33.25,1.08,66.51-.78,99.75-.15,2.6.59,3.51,3.27,3.43,5.99-.18,11.99-.06,17.98-.07Zm67.49-.2c4.18,0,7.67-.06,11.16.02,1.77.04,2.63-.17,3.37-2.31,2.64-7.63,5.87-15.05,8.74-22.6.84-2.2,1.78-3.5,4.5-3.48,13.98.13,27.97.06,41.95.04,1.56,0,3.15-.02,3.4,2.01.55,4.43,3.13,8.12,4.36,12.35,4.21,14.5,4.96,14.85,18.01,14.07.16,0,.32-.1.92-.29-3.52-8.86-7.05-17.68-10.53-26.53-3.49-8.86-6.77-17.81-10.46-26.58-6.77-16.09-13.23-32.29-19.3-48.65-.97-2.63-2.64-4.9-6.18-4.15-3.24.69-6.84-1.6-9.01,3.96-6.66,17.09-13.64,34.06-20.34,51.14-1.55,3.96-1.8,8.3-3.97,11.97-7.22,12.18-10.44,26-16.63,39.01Zm-509.11-54.89c0,13.49-.03,26.98.02,40.47.02,4.64-1.53,10.72.8,13.54,2.73,3.31,9.11.33,13.78,1.17,5.66,1.01,6.53-2.19,6.62-6.5.02-.67,0-1.33,0-2,0-28.65.02-57.3-.02-85.95,0-4.96,1.64-11.48-.85-14.46-2.64-3.17-9.44-.37-14.32-1.09-5.46-.81-6.23,1.57-6.14,6.34.28,16.15.11,32.31.11,48.47Z"/>
  <path class="cls-3" d="m56.91,184.01c0-8.49.05-16.98-.02-25.48-.04-5.96,3.24-10.59,7.79-12.99,8.28-4.35,16.23-9.24,24.49-13.61,6.34-3.36,12.3-7.46,18.71-10.65,5.02-2.5,10.91-2.84,15.77-.21,12.96,7.02,25.38,15.03,38.35,22.03,5.7,3.07,10.39,6.24,12.68,12.66,2.05,5.75.84,11.48.98,17.22.02.89-1.1,2.13-2.02,2.66-5.55,3.21-11.26,6.15-16.78,9.42-3.03,1.79-2.91,0-2.9-2.07,0-4.66-.36-9.36.1-13.98.4-4.02-.95-6.36-4.4-8.22-9.16-4.95-18.46-9.71-27.21-15.33-5.94-3.81-10.86-2.49-15.92.8-7.19,4.66-14.08,10.24-22.08,12.99-6.6,2.27-6.61,5.73-6.37,11.25.48,10.97.28,21.98.06,32.97-.06,3.14,1.13,5.21,3.62,6.34,10.82,4.94,20.65,11.62,31.07,17.24,2.16,1.17,3.97.83,6.06-.26,15.06-7.86,29.4-16.97,44.13-25.41,13.97-8,27.76-16.3,41.79-24.18,5.64-3.16,11.66-3.02,17.4.34,13.54,7.93,26.94,16.14,40.7,23.66,7.01,3.83,9.93,9.42,10,16.85.14,15.15.25,30.32-.06,45.47-.16,7.98-3.41,14.4-10.98,18.49-12.98,7.02-25.63,14.67-38.57,21.77-5.11,2.81-10.98,4.53-16.64,2.82-4.15-1.26-7.65-4.55-11.59-6.68-3.61-1.96-7.01-4.21-10.04-6.92-4.28-3.84-10.38-3.73-14.8-7.34-3.67-3.01-7.9-5.34-11.73-8.17-2.92-2.16-4.32-5.22-4.5-8.93q-.79-16.58,13.54-24.76,7.86-4.48,7.81,4.74c0,1.67.31,3.4-.05,4.98-1.68,7.36,2.05,12.12,8.01,14.87,8.52,3.92,16.27,9.11,24.17,13.96,5.43,3.34,10.01,1.22,13.42-1.31,8.41-6.24,18-10.3,26.7-15.94,2.41-1.56,3.53-2.89,3.5-5.76-.13-11.99-.13-23.98.02-35.97.03-2.88-.95-4.31-3.53-5.71-10.51-5.71-20.83-11.76-31.2-17.72-2.39-1.37-4.39-1.71-7.24-.29-8.83,4.38-16.81,10.16-25.6,14.66-10.69,5.47-20.57,12.48-30.99,18.52-10.25,5.95-20.57,11.84-31.18,17.1-4.61,2.28-9.5,1.45-14.53-1.28-4.81-2.61-9.84-5.22-14.34-8.09-6.09-3.88-13.79-5.45-18.31-11.76-.8-1.12-2.06-1.4-3.34-1.88-10.47-3.89-14.07-9.2-14.12-20.44-.03-7.49,0-14.99,0-22.48.05,0,.1,0,.16,0Z"/>
  <path class="cls-2" d="m657.57,268.4c.74-.92,1.79-.72,2.77-.75,7.6-.26,11.6-4.38,11.65-12.04.02-2.46,0-4.93,0-7.77-4.62,1.11-7.28,5.22-11.89,5.65-8.99.84-18.01,2.25-26.41-2.29-9.64-5.21-15.21-13.78-17.58-24.18-2.6-11.4-1.06-22.61,3.7-33.31,6.29-14.13,21.84-19.85,36.23-17.34,4.72.82,9.13,2.12,13.03,5.08,1.76,1.33,3.19.81,2.88-1.75-.31-2.55.93-3.24,3.19-2.92.33.05.67,0,1,0,5.72.06,13.16-2.15,16.66,1.08,3.35,3.09.96,10.63.99,16.21.1,17.48.11,34.96,0,52.44-.04,5.78-.16,11.61-.94,17.33-1.05,7.67-6,12.61-12.48,16.58-5.36,3.28-11.06,3.74-16.97,3.84-11.13.2-22.27-.36-33.37.71-3.2.31-4.17-1-3.87-3.95.15-1.48.04-2.99.04-4.49,0-8.82,0-9.04,9.13-8.77,6.73.2,13.54-1.24,20.19.83.73.41,1.45.69,2.06-.2Zm15.44-52.15c0-2.64.08-4.15-.01-5.64-.51-8.26-6.96-15.91-15.33-16.4-9.77-.57-15.42.59-19.16,9.84-1.82,4.51-3.08,9.29-2.48,14.25,2.06,17.07,16,21.57,28.2,15.41,7.39-3.73,9.57-10.65,8.78-17.47Z"/>
  <path class="cls-2" d="m348.02,247.05c0,11.87-.13,22.48.08,33.09.06,3.28-.87,4.4-4.16,4.21-4.15-.25-8.34-.31-12.48.04-3.83.32-4.69-1.06-4.67-4.74.15-29.63.11-59.26.05-88.89,0-3.61-.41-7.23-.78-10.83-.25-2.47.82-3.22,3.13-3.16,3.99.1,8,.21,11.99-.02,4.48-.25,8.25-.04,6.65,7.62,7.11-7.19,14.8-8.66,23.16-8.4,16.03.49,27.58,9.23,32.09,24.98,4.08,14.23,2.36,27.71-6.08,39.88-5.04,7.27-12.2,11.86-21.23,13.16-4.01.58-7.86.69-11.99.35-5.96-.49-10.58-2.68-15.74-7.28Zm-.98-32.27c0,1.6.05,2.77,0,3.93-.44,8.08,4.57,13.14,10.79,16.19,4.83,2.36,10.65,2.18,15.98-.67,8.81-4.71,11.05-12.54,10.23-21.53-1.33-14.62-12.09-21.18-25.53-17.59-6.7,1.79-12.32,7.91-11.46,19.67Z"/>
  <path class="cls-2" d="m1221.01,202.08c.34,12.79-4.53,26.2-14.84,36.84-8.88,9.16-19.88,15.32-33.42,15.11-3.42-.05-6.84-.39-10.27.81-2.35.82-4.66-.77-7-1.39-21.17-5.63-32.98-20.15-37.97-40.56-5.31-21.71,3.65-49.78,26.09-61.04,22.86-11.47,50.28-6.27,66.24,13.91,7.65,9.67,11.41,21.41,11.19,36.33Zm-90.9-11.62c.27,9.36-.44,18.74,2.92,27.86,4.95,13.46,20.66,26.84,37.12,24.67,1.62-.21,3.01-1.02,4.73-1.12,9.14-.57,16.13-5.48,22.02-11.97,4.29-4.73,6.68-10.48,8.68-16.65,4.55-14.02,1.99-26.71-5.63-38.71-6.48-10.2-16.36-15.27-28.05-16.4-8.38-.81-16.67.38-23.95,5.29-9.65,6.51-14.5,16.18-17.75,26.92l-.09.12Z"/>
  <path class="cls-2" d="m745.66,253.98c-23.27,2.66-40.05-19.58-39.6-38.96.54-23.38,16.29-37.42,35.71-38.82,30.32-2.19,45.06,17.38,45.47,38.55.39,19.68-15.87,41.87-41.58,39.24Zm-.13-18c11,1.23,20.91-7.7,20.53-20.43-.39-13.09-7.44-20.87-18.89-21.71-11.55-.84-20.14,9.87-19.35,22.31.74,11.61,7.32,19.8,17.7,19.82Z"/>
  <path class="cls-2" d="m452.76,253.97c-22.71,3.06-38.84-19.04-40.05-33.83-2.33-28.57,19.72-45.62,41.25-44.27,21.84,1.37,39.3,15.23,39.41,39.64.09,20.38-17.79,41.11-40.61,38.46Zm-18.73-39.15c0,1.16-.08,2.34.01,3.49.57,7.48,4.12,13.58,10.85,16.37,6.19,2.56,12.95,2.76,19.02-1.91,6.85-5.28,8.78-12.47,8-20.37-1.46-14.91-11.79-20.59-25.04-17.52-8.7,2.02-12.93,9.51-12.85,19.95Z"/>
  <path class="cls-2" d="m821.24,185.62c6.26-8.61,15.09-10.34,24.51-9.5,10.42.92,19.29,4.84,23.41,15.57,1.93,5.03,3.26,10.2,3.27,15.62.03,13.81-.09,27.62.08,41.43.04,3.33-.65,4.82-4.34,4.55-4.3-.31-8.66-.26-12.97.04-3.42.24-4.17-1.08-4.15-4.27.11-13.14-.03-26.29-.11-39.43-.03-5.27-3.84-12.63-7.46-13.46-6.69-1.53-13.75-3.1-19.05,3.1-2.74,3.21-4.03,6.99-3.85,11.77.5,13.12-.02,26.27,0,39.41,0,2.74-1.45,2.87-3.48,2.84-4.66-.07-9.34-.29-13.98.01-3.56.23-4.05-1.31-4.03-4.36.11-19.97.02-39.94.11-59.91.02-3.95-2-9.2.47-11.51,2.63-2.46,7.89-.5,11.99-.74.66-.04,1.35.11,1.99-.02,5.1-1.02,7.36.84,6.36,6.14-.2,1.06.16,1.95,1.24,2.71Z"/>
  <path class="cls-2" d="m948.2,253.19c-6,0-12-.12-17.99.06-2.68.08-3.42-.83-3.27-3.43,1.87-33.23.43-66.5.78-99.75.03-2.83,1.14-3.2,3.53-3.18,12.92.12,25.97-.99,38.71,1.29,17.35,3.11,33.33,13.85,39.1,33.2,4.16,13.95,3.91,27.73-1.27,41.12-4.95,12.8-14.14,21.54-27.24,26.73-10.63,4.21-21.41,4.04-32.36,3.97Zm49.12-60.63c-1.14-15.04-8.75-25.15-22.85-30.68-10.34-4.05-21.04-2.97-31.69-3.12-1.96-.03-2,1.24-2,2.65,0,25.79.01,51.58-.02,77.38,0,1.72.18,2.88,2.36,2.78,9.28-.42,18.67,1.36,27.84-1.6,6.4-2.07,12.69-4.75,16.98-9.78,8.88-10.4,12.21-22.74,10.16-36.39.13-.39.26-.77.39-1.16-.39-.03-.78-.06-1.17-.08Z"/>
  <path class="cls-2" d="m574.2,282.32c.08,1.96-1.23,2-2.66,1.99-4.66-.02-9.33-.09-13.99.04-2.71.08-3.03-.94-2.29-3.3,2.72-8.77,5.54-17.5,9.22-25.92.65-1.49.57-2.76.02-4.24-4.21-11.4-8.29-22.85-12.55-34.24-4.52-12.09-9.37-24.05-13.41-36.33-1.09-3.32-.19-3.66,2.71-3.56,4.66.16,9.34.21,13.99-.07,2.87-.17,4.06,1.05,4.85,3.54,2.91,9.18,6.22,18.25,8.79,27.52,1.08,3.92,3.85,7.11,4.2,11.26.05.63,1.3,1.77,1.46,1.68,1.05-.56,2.08-.95,2.82-2.27,2.8-4.96,3.76-10.5,5.48-15.79,2.49-7.64,4.86-15.32,7.05-23.05.57-2.03,1.65-2.77,3.45-2.79,5.5-.05,10.99-.01,16.49,0,1.81,0,2.61.11,1.72,2.54-5.73,15.7-10.84,31.62-16.83,47.22-6.58,17.13-12.4,34.51-18.67,51.74-.49,1.35-1.18,2.63-1.78,3.94,0,0-.06.08-.06.08Z"/>
  <path class="cls-2" d="m1015.68,252.98c6.19-13.01,9.41-26.83,16.63-39.01,2.18-3.67,2.42-8.01,3.97-11.97,6.7-17.08,13.69-34.05,20.34-51.14,2.17-5.56,5.76-3.27,9.01-3.96,3.53-.76,5.2,1.52,6.18,4.15,6.07,16.36,12.53,32.57,19.3,48.65,3.69,8.77,6.97,17.72,10.46,26.58,3.49,8.84,7.01,17.67,10.53,26.53-.61.19-.76.28-.92.29-13.05.77-13.8.42-18.01-14.07-1.23-4.23-3.81-7.92-4.36-12.35-.25-2.03-1.84-2.01-3.4-2.01-13.98.02-27.97.09-41.95-.04-2.72-.03-3.66,1.27-4.5,3.48-2.88,7.55-6.11,14.97-8.74,22.6-.74,2.14-1.6,2.35-3.37,2.31-3.49-.08-6.98-.02-11.16-.02Zm29.24-40.01c11.97,0,23.46-.06,34.94.04,3.12.03,3.52-.44,2.24-3.59-4.7-11.49-8.68-23.27-13.48-34.72-1.47-3.51-2.1-7.62-4.74-10.78-6.37,16.48-12.56,32.5-18.96,49.05Z"/>
  <path class="cls-2" d="m506.57,198.09c0-16.16.17-32.32-.11-48.47-.08-4.78.69-7.15,6.14-6.34,4.88.72,11.68-2.07,14.32,1.09,2.49,2.99.84,9.5.85,14.46.03,28.65.02,57.3.02,85.95,0,.67.02,1.33,0,2-.1,4.3-.96,7.51-6.62,6.5-4.67-.83-11.05,2.14-13.78-1.17-2.33-2.82-.78-8.9-.8-13.54-.05-13.49-.02-26.98-.02-40.47Z"/>
  <path class="cls-3" d="m657.57,268.4c-.62.89-1.34.61-2.06.2-.39-.7-.21-1.18.61-1.26.76-.08,1.66-.22,1.45,1.06Z"/>
  <path class="cls-3" d="m574.2,282.32s.06-.08.06-.08c0,0-.06.08-.06.08Z"/>
  <path class="cls-1" d="m673.01,216.25c.79,6.82-1.39,13.74-8.78,17.47-12.2,6.16-26.14,1.66-28.2-15.41-.6-4.96.66-9.74,2.48-14.25,3.73-9.25,9.39-10.41,19.16-9.84,8.37.49,14.82,8.14,15.33,16.4.09,1.49.01,3,.01,5.64Z"/>
  <path class="cls-1" d="m347.04,214.78c-.87-11.76,4.75-17.87,11.46-19.67,13.44-3.6,24.21,2.97,25.53,17.59.82,9-1.42,16.82-10.23,21.53-5.33,2.85-11.15,3.03-15.98.67-6.22-3.04-11.23-8.11-10.79-16.19.06-1.16,0-2.33,0-3.93Z"/>
  <path class="cls-1" d="m1130.19,190.33c3.24-10.73,8.09-20.41,17.75-26.92,7.28-4.91,15.57-6.1,23.95-5.29,11.7,1.13,21.57,6.2,28.05,16.4,7.62,12,10.18,24.69,5.63,38.71-2,6.16-4.38,11.92-8.68,16.65-5.89,6.49-12.88,11.4-22.02,11.97-1.72.11-3.11.91-4.73,1.12-16.46,2.17-32.17-11.21-37.12-24.67-3.35-9.13-2.65-18.51-2.92-27.86,0,0,.21.07.21.07l-.12-.19Z"/>
  <polygon class="cls-3" points="1130.19 190.33 1130.31 190.53 1130.1 190.46 1130.19 190.33"/>
  <path class="cls-1" d="m745.53,235.98c-10.38-.03-16.96-8.21-17.7-19.82-.79-12.44,7.8-23.15,19.35-22.31,11.45.84,18.5,8.62,18.89,21.71.38,12.72-9.53,21.65-20.53,20.43Z"/>
  <path class="cls-1" d="m434.02,214.82c-.08-10.43,4.16-17.92,12.85-19.95,13.24-3.08,23.58,2.61,25.04,17.52.77,7.91-1.15,15.1-8,20.37-6.07,4.67-12.83,4.47-19.02,1.91-6.73-2.78-10.29-8.89-10.85-16.37-.09-1.16-.01-2.33-.01-3.49Z"/>
  <path class="cls-1" d="m998.1,193.8c2.05,13.65-1.28,25.99-10.16,36.39-4.3,5.03-10.59,7.71-16.98,9.78-9.17,2.97-18.55,1.18-27.84,1.6-2.17.1-2.36-1.06-2.36-2.78.03-25.79.03-51.58.02-77.38,0-1.41.04-2.68,2-2.65,10.65.15,21.35-.93,31.69,3.12,14.1,5.52,21.71,15.63,22.85,30.67-.38.81-.49,1.46.78,1.25Z"/>
  <path class="cls-3" d="m998.1,193.8c-1.27.22-1.17-.43-.78-1.25.39.04.78.06,1.17.09-.13.39-.26.77-.39,1.16Z"/>
  <path class="cls-1" d="m1044.92,212.97c6.4-16.55,12.59-32.57,18.96-49.05,2.64,3.16,3.27,7.27,4.74,10.78,4.79,11.45,8.78,23.23,13.48,34.72,1.29,3.15.88,3.62-2.24,3.59-11.48-.1-22.97-.04-34.94-.04Z"/>
</svg>